<svg xmlns="http://www.w3.org/2000/svg" viewBox="0 0 48 48"><defs><style>.cls-1{fill:#192835;}.cls-2{fill:#fbbc04;}.cls-3{fill:#f9e109;}.cls-4{fill:#4891d3;}.cls-5{fill:#9fd21d;}</style></defs><title>news paper</title><g id="news_paper" data-name="news paper"><path class="cls-1" d="M42,12H36a1,1,0,0,0-1,1V39a3.27,3.27,0,0,0,0,.54,3.12,3.12,0,0,0,.09.44.53.53,0,0,0,0,.12,2.47,2.47,0,0,0,.1.29,2.33,2.33,0,0,0,.11.28,2,2,0,0,0,.17.32h0A4,4,0,0,0,43,39V13A1,1,0,0,0,42,12ZM41,39a2,2,0,0,1-4,0V14h4Z"/><path class="cls-2" d="M41,14V39a2,2,0,0,1-4,0V14Z"/><path class="cls-3" d="M35.54,41H9a2,2,0,0,1-2-2V7H35V39a3.27,3.27,0,0,0,0,.54,3.12,3.12,0,0,0,.09.44.53.53,0,0,0,0,.12,1.42,1.42,0,0,0,.1.29,2.33,2.33,0,0,0,.11.28A2,2,0,0,0,35.54,41Z"/><path class="cls-1" d="M32,11H10a1,1,0,0,0-1,1v9a1,1,0,0,0,1,1H32a1,1,0,0,0,1-1V12A1,1,0,0,0,32,11Zm-1,9H11V13H31Z"/><rect class="cls-4" x="11" y="13" width="20" height="7"/><path class="cls-1" d="M32,24H24a1,1,0,0,0-1,1v8a1,1,0,0,0,1,1h8a1,1,0,0,0,1-1V25A1,1,0,0,0,32,24Zm-1,8H25V26h6Z"/><rect class="cls-5" x="25" y="26" width="6" height="6"/><path class="cls-1" d="M20,26H10a1,1,0,0,1,0-2H20a1,1,0,0,1,0,2Z"/><path class="cls-1" d="M20,30H10a1,1,0,0,1,0-2H20a1,1,0,0,1,0,2Z"/><path class="cls-1" d="M20,34H10a1,1,0,0,1,0-2H20a1,1,0,0,1,0,2Z"/><path class="cls-2" d="M32,39H6a1,1,0,0,1,0-2H32a1,1,0,0,1,0,2Z"/><path class="cls-1" d="M39,41a2,2,0,0,1-2-2V6a1,1,0,0,0-1-1H6A1,1,0,0,0,5,6V39a4,4,0,0,0,4,4H39a1,1,0,0,0,0-2ZM9,41a2,2,0,0,1-2-2V7H35V39a3.27,3.27,0,0,0,0,.54,3.12,3.12,0,0,0,.09.44.53.53,0,0,0,0,.12,2.47,2.47,0,0,0,.1.29,2.33,2.33,0,0,0,.11.28,2,2,0,0,0,.17.32H9Z"/></g></svg>