<svg version="1.1" viewBox="0.0 0.0 240.0 240.0" fill="none" stroke="none" stroke-linecap="square" stroke-miterlimit="10" xmlns:xlink="http://www.w3.org/1999/xlink" xmlns="http://www.w3.org/2000/svg"><clipPath id="p.0"><path d="m0 0l240.0 0l0 240.0l-240.0 0l0 -240.0z" clip-rule="nonzero"/></clipPath><g clip-path="url(#p.0)"><path fill="#000000" fill-opacity="0.0" d="m0 0l240.0 0l0 240.0l-240.0 0z" fill-rule="evenodd"/><path fill="#000000" fill-opacity="0.0" d="m45.820568 23.999693l148.35886 0l0 192.00061l-148.35886 0z" fill-rule="evenodd"/><path stroke="#ffffff" stroke-width="4.0" stroke-linejoin="round" stroke-linecap="butt" d="m45.820568 23.999693l148.35886 0l0 192.00061l-148.35886 0z" fill-rule="evenodd"/><path fill="#000000" fill-opacity="0.0" d="m144.78299 24.020731l49.10611 48.89415" fill-rule="evenodd"/><path stroke="#ffffff" stroke-width="4.0" stroke-linejoin="round" stroke-linecap="butt" d="m144.78299 24.020731l49.10611 48.89415" fill-rule="evenodd"/><path fill="#000000" fill-opacity="0.0" d="m68.555504 53.003094l13.493271 -14.13686" fill-rule="evenodd"/><path stroke="#ffffff" stroke-width="4.0" stroke-linejoin="round" stroke-linecap="butt" d="m68.555504 53.003094l13.493271 -14.13686" fill-rule="evenodd"/><path fill="#000000" fill-opacity="0.0" d="m82.05437 38.85509l9.230469 8.4888" fill-rule="evenodd"/><path stroke="#ffffff" stroke-width="4.0" stroke-linejoin="round" stroke-linecap="butt" d="m82.05437 38.85509l9.230469 8.4888" fill-rule="evenodd"/><path fill="#000000" fill-opacity="0.0" d="m91.290436 47.34389l7.8207245 -6.349888" fill-rule="evenodd"/><path stroke="#ffffff" stroke-width="4.0" stroke-linejoin="round" stroke-linecap="butt" d="m91.290436 47.34389l7.8207245 -6.349888" fill-rule="evenodd"/><path fill="#000000" fill-opacity="0.0" d="m99.10557 40.97729l6.41098 10.627712" fill-rule="evenodd"/><path stroke="#ffffff" stroke-width="4.0" stroke-linejoin="round" stroke-linecap="butt" d="m99.10557 40.97729l6.41098 10.627712" fill-rule="evenodd"/><path fill="#000000" fill-opacity="0.0" d="m105.49976 51.58829l7.11586 -16.9776" fill-rule="evenodd"/><path stroke="#ffffff" stroke-width="4.0" stroke-linejoin="round" stroke-linecap="butt" d="m105.49976 51.58829l7.11586 -16.9776" fill-rule="evenodd"/><path fill="#000000" fill-opacity="0.0" d="m112.60443 34.61069l4.262802 12.7332" fill-rule="evenodd"/><path stroke="#ffffff" stroke-width="4.0" stroke-linejoin="round" stroke-linecap="butt" d="m112.60443 34.61069l4.262802 12.7332" fill-rule="evenodd"/><path fill="#000000" fill-opacity="0.0" d="m116.86723 47.34389l8.525597 -12.7332" fill-rule="evenodd"/><path stroke="#ffffff" stroke-width="4.0" stroke-linejoin="round" stroke-linecap="butt" d="m116.86723 47.34389l8.525597 -12.7332" fill-rule="evenodd"/><path fill="#000000" fill-opacity="0.0" d="m125.39283 34.61069l9.935356 14.13686" fill-rule="evenodd"/><path stroke="#ffffff" stroke-width="4.0" stroke-linejoin="round" stroke-linecap="butt" d="m125.39283 34.61069l9.935356 14.13686" fill-rule="evenodd"/><path fill="#000000" fill-opacity="0.0" d="m57.892906 93.049126l12.788399 -16.275772" fill-rule="evenodd"/><path stroke="#ffffff" stroke-width="4.0" stroke-linejoin="round" stroke-linecap="butt" d="m57.892906 93.049126l12.788399 -16.275772" fill-rule="evenodd"/><path fill="#000000" fill-opacity="0.0" d="m70.681305 78.193726l9.9353485 12.031364" fill-rule="evenodd"/><path stroke="#ffffff" stroke-width="4.0" stroke-linejoin="round" stroke-linecap="butt" d="m70.681305 78.193726l9.9353485 12.031364" fill-rule="evenodd"/><path fill="#000000" fill-opacity="0.0" d="m80.62784 90.21952l7.820732 -11.329536" fill-rule="evenodd"/><path stroke="#ffffff" stroke-width="4.0" stroke-linejoin="round" stroke-linecap="butt" d="m80.62784 90.21952l7.820732 -11.329536" fill-rule="evenodd"/><path fill="#000000" fill-opacity="0.0" d="m88.44297 78.90112l8.525604 11.329536" fill-rule="evenodd"/><path stroke="#ffffff" stroke-width="4.0" stroke-linejoin="round" stroke-linecap="butt" d="m88.44297 78.90112l8.525604 11.329536" fill-rule="evenodd"/><path fill="#000000" fill-opacity="0.0" d="m96.968575 90.21952l9.935341 -12.031364" fill-rule="evenodd"/><path stroke="#ffffff" stroke-width="4.0" stroke-linejoin="round" stroke-linecap="butt" d="m96.968575 90.21952l9.935341 -12.031364" fill-rule="evenodd"/><path fill="#000000" fill-opacity="0.0" d="m106.91511 78.193726l8.525597 12.031364" fill-rule="evenodd"/><path stroke="#ffffff" stroke-width="4.0" stroke-linejoin="round" stroke-linecap="butt" d="m106.91511 78.193726l8.525597 12.031364" fill-rule="evenodd"/><path fill="#000000" fill-opacity="0.0" d="m115.440704 90.21952l9.230476 -9.892456" fill-rule="evenodd"/><path stroke="#ffffff" stroke-width="4.0" stroke-linejoin="round" stroke-linecap="butt" d="m115.440704 90.21952l9.230476 -9.892456" fill-rule="evenodd"/><path fill="#000000" fill-opacity="0.0" d="m124.67677 80.315926l6.41098 9.892456" fill-rule="evenodd"/><path stroke="#ffffff" stroke-width="4.0" stroke-linejoin="round" stroke-linecap="butt" d="m124.67677 80.315926l6.41098 9.892456" fill-rule="evenodd"/><path fill="#000000" fill-opacity="0.0" d="m131.07097 90.21952l8.525604 -12.7332" fill-rule="evenodd"/><path stroke="#ffffff" stroke-width="4.0" stroke-linejoin="round" stroke-linecap="butt" d="m131.07097 90.21952l8.525604 -12.7332" fill-rule="evenodd"/><path fill="#000000" fill-opacity="0.0" d="m139.59657 77.48632l5.6725464 12.031372" fill-rule="evenodd"/><path stroke="#ffffff" stroke-width="4.0" stroke-linejoin="round" stroke-linecap="butt" d="m139.59657 77.48632l5.6725464 12.031372" fill-rule="evenodd"/><path fill="#000000" fill-opacity="0.0" d="m145.2803 88.09732l9.9353485 -10.594284" fill-rule="evenodd"/><path stroke="#ffffff" stroke-width="4.0" stroke-linejoin="round" stroke-linecap="butt" d="m145.2803 88.09732l9.9353485 -10.594284" fill-rule="evenodd"/><path fill="#000000" fill-opacity="0.0" d="m155.22684 77.48632l8.525604 11.329544" fill-rule="evenodd"/><path stroke="#ffffff" stroke-width="4.0" stroke-linejoin="round" stroke-linecap="butt" d="m155.22684 77.48632l8.525604 11.329544" fill-rule="evenodd"/><path fill="#000000" fill-opacity="0.0" d="m57.892906 123.04183l12.788399 -16.275764" fill-rule="evenodd"/><path stroke="#ffffff" stroke-width="4.0" stroke-linejoin="round" stroke-linecap="butt" d="m57.892906 123.04183l12.788399 -16.275764" fill-rule="evenodd"/><path fill="#000000" fill-opacity="0.0" d="m70.681305 108.18643l9.9353485 12.031372" fill-rule="evenodd"/><path stroke="#ffffff" stroke-width="4.0" stroke-linejoin="round" stroke-linecap="butt" d="m70.681305 108.18643l9.9353485 12.031372" fill-rule="evenodd"/><path fill="#000000" fill-opacity="0.0" d="m80.62784 120.212234l7.820732 -11.329536" fill-rule="evenodd"/><path stroke="#ffffff" stroke-width="4.0" stroke-linejoin="round" stroke-linecap="butt" d="m80.62784 120.212234l7.820732 -11.329536" fill-rule="evenodd"/><path fill="#000000" fill-opacity="0.0" d="m88.44297 108.89384l8.525604 11.329536" fill-rule="evenodd"/><path stroke="#ffffff" stroke-width="4.0" stroke-linejoin="round" stroke-linecap="butt" d="m88.44297 108.89384l8.525604 11.329536" fill-rule="evenodd"/><path fill="#000000" fill-opacity="0.0" d="m96.968575 120.212234l9.935341 -12.031372" fill-rule="evenodd"/><path stroke="#ffffff" stroke-width="4.0" stroke-linejoin="round" stroke-linecap="butt" d="m96.968575 120.212234l9.935341 -12.031372" fill-rule="evenodd"/><path fill="#000000" fill-opacity="0.0" d="m106.91511 108.18643l8.525597 12.031372" fill-rule="evenodd"/><path stroke="#ffffff" stroke-width="4.0" stroke-linejoin="round" stroke-linecap="butt" d="m106.91511 108.18643l8.525597 12.031372" fill-rule="evenodd"/><path fill="#000000" fill-opacity="0.0" d="m115.440704 120.212234l9.230476 -9.892456" fill-rule="evenodd"/><path stroke="#ffffff" stroke-width="4.0" stroke-linejoin="round" stroke-linecap="butt" d="m115.440704 120.212234l9.230476 -9.892456" fill-rule="evenodd"/><path fill="#000000" fill-opacity="0.0" d="m124.67677 110.30863l6.41098 9.892464" fill-rule="evenodd"/><path stroke="#ffffff" stroke-width="4.0" stroke-linejoin="round" stroke-linecap="butt" d="m124.67677 110.30863l6.41098 9.892464" fill-rule="evenodd"/><path fill="#000000" fill-opacity="0.0" d="m131.07097 120.212234l8.525604 -12.7332" fill-rule="evenodd"/><path stroke="#ffffff" stroke-width="4.0" stroke-linejoin="round" stroke-linecap="butt" d="m131.07097 120.212234l8.525604 -12.7332" fill-rule="evenodd"/><path fill="#000000" fill-opacity="0.0" d="m139.59657 107.479034l5.6725464 12.031372" fill-rule="evenodd"/><path stroke="#ffffff" stroke-width="4.0" stroke-linejoin="round" stroke-linecap="butt" d="m139.59657 107.479034l5.6725464 12.031372" fill-rule="evenodd"/><path fill="#000000" fill-opacity="0.0" d="m145.2803 118.090034l9.9353485 -10.594292" fill-rule="evenodd"/><path stroke="#ffffff" stroke-width="4.0" stroke-linejoin="round" stroke-linecap="butt" d="m145.2803 118.090034l9.9353485 -10.594292" fill-rule="evenodd"/><path fill="#000000" fill-opacity="0.0" d="m155.22684 107.479034l8.525604 11.329544" fill-rule="evenodd"/><path stroke="#ffffff" stroke-width="4.0" stroke-linejoin="round" stroke-linecap="butt" d="m155.22684 107.479034l8.525604 11.329544" fill-rule="evenodd"/><path fill="#000000" fill-opacity="0.0" d="m57.892906 154.94589l12.788399 -16.275772" fill-rule="evenodd"/><path stroke="#ffffff" stroke-width="4.0" stroke-linejoin="round" stroke-linecap="butt" d="m57.892906 154.94589l12.788399 -16.275772" fill-rule="evenodd"/><path fill="#000000" fill-opacity="0.0" d="m70.681305 140.0905l9.9353485 12.031372" fill-rule="evenodd"/><path stroke="#ffffff" stroke-width="4.0" stroke-linejoin="round" stroke-linecap="butt" d="m70.681305 140.0905l9.9353485 12.031372" fill-rule="evenodd"/><path fill="#000000" fill-opacity="0.0" d="m80.62784 152.1163l7.820732 -11.329544" fill-rule="evenodd"/><path stroke="#ffffff" stroke-width="4.0" stroke-linejoin="round" stroke-linecap="butt" d="m80.62784 152.1163l7.820732 -11.329544" fill-rule="evenodd"/><path fill="#000000" fill-opacity="0.0" d="m88.44297 140.7979l8.525604 11.329544" fill-rule="evenodd"/><path stroke="#ffffff" stroke-width="4.0" stroke-linejoin="round" stroke-linecap="butt" d="m88.44297 140.7979l8.525604 11.329544" fill-rule="evenodd"/><path fill="#000000" fill-opacity="0.0" d="m96.968575 152.1163l9.935341 -12.031372" fill-rule="evenodd"/><path stroke="#ffffff" stroke-width="4.0" stroke-linejoin="round" stroke-linecap="butt" d="m96.968575 152.1163l9.935341 -12.031372" fill-rule="evenodd"/><path fill="#000000" fill-opacity="0.0" d="m106.91511 140.0905l8.525597 12.031372" fill-rule="evenodd"/><path stroke="#ffffff" stroke-width="4.0" stroke-linejoin="round" stroke-linecap="butt" d="m106.91511 140.0905l8.525597 12.031372" fill-rule="evenodd"/><path fill="#000000" fill-opacity="0.0" d="m115.440704 152.1163l9.230476 -9.892471" fill-rule="evenodd"/><path stroke="#ffffff" stroke-width="4.0" stroke-linejoin="round" stroke-linecap="butt" d="m115.440704 152.1163l9.230476 -9.892471" fill-rule="evenodd"/><path fill="#000000" fill-opacity="0.0" d="m124.67677 142.21269l6.41098 9.892471" fill-rule="evenodd"/><path stroke="#ffffff" stroke-width="4.0" stroke-linejoin="round" stroke-linecap="butt" d="m124.67677 142.21269l6.41098 9.892471" fill-rule="evenodd"/><path fill="#000000" fill-opacity="0.0" d="m131.07097 152.1163l8.525604 -12.7332" fill-rule="evenodd"/><path stroke="#ffffff" stroke-width="4.0" stroke-linejoin="round" stroke-linecap="butt" d="m131.07097 152.1163l8.525604 -12.7332" fill-rule="evenodd"/><path fill="#000000" fill-opacity="0.0" d="m139.59657 139.3831l5.6725464 12.031357" fill-rule="evenodd"/><path stroke="#ffffff" stroke-width="4.0" stroke-linejoin="round" stroke-linecap="butt" d="m139.59657 139.3831l5.6725464 12.031357" fill-rule="evenodd"/><path fill="#000000" fill-opacity="0.0" d="m145.2803 149.9941l9.9353485 -10.594284" fill-rule="evenodd"/><path stroke="#ffffff" stroke-width="4.0" stroke-linejoin="round" stroke-linecap="butt" d="m145.2803 149.9941l9.9353485 -10.594284" fill-rule="evenodd"/><path fill="#000000" fill-opacity="0.0" d="m155.22684 139.3831l8.525604 11.329529" fill-rule="evenodd"/><path stroke="#ffffff" stroke-width="4.0" stroke-linejoin="round" stroke-linecap="butt" d="m155.22684 139.3831l8.525604 11.329529" fill-rule="evenodd"/><path fill="#000000" fill-opacity="0.0" d="m57.892906 190.2387l12.788399 -16.275772" fill-rule="evenodd"/><path stroke="#ffffff" stroke-width="4.0" stroke-linejoin="round" stroke-linecap="butt" d="m57.892906 190.2387l12.788399 -16.275772" fill-rule="evenodd"/><path fill="#000000" fill-opacity="0.0" d="m70.681305 175.38329l9.9353485 12.031372" fill-rule="evenodd"/><path stroke="#ffffff" stroke-width="4.0" stroke-linejoin="round" stroke-linecap="butt" d="m70.681305 175.38329l9.9353485 12.031372" fill-rule="evenodd"/><path fill="#000000" fill-opacity="0.0" d="m80.62784 187.40909l7.820732 -11.329529" fill-rule="evenodd"/><path stroke="#ffffff" stroke-width="4.0" stroke-linejoin="round" stroke-linecap="butt" d="m80.62784 187.40909l7.820732 -11.329529" fill-rule="evenodd"/><path fill="#000000" fill-opacity="0.0" d="m88.44297 176.0907l8.525604 11.329529" fill-rule="evenodd"/><path stroke="#ffffff" stroke-width="4.0" stroke-linejoin="round" stroke-linecap="butt" d="m88.44297 176.0907l8.525604 11.329529" fill-rule="evenodd"/><path fill="#000000" fill-opacity="0.0" d="m96.968575 187.40909l9.935341 -12.031372" fill-rule="evenodd"/><path stroke="#ffffff" stroke-width="4.0" stroke-linejoin="round" stroke-linecap="butt" d="m96.968575 187.40909l9.935341 -12.031372" fill-rule="evenodd"/><path fill="#000000" fill-opacity="0.0" d="m106.91511 175.38329l8.525597 12.031372" fill-rule="evenodd"/><path stroke="#ffffff" stroke-width="4.0" stroke-linejoin="round" stroke-linecap="butt" d="m106.91511 175.38329l8.525597 12.031372" fill-rule="evenodd"/><path fill="#000000" fill-opacity="0.0" d="m115.440704 187.40909l9.230476 -9.892456" fill-rule="evenodd"/><path stroke="#ffffff" stroke-width="4.0" stroke-linejoin="round" stroke-linecap="butt" d="m115.440704 187.40909l9.230476 -9.892456" fill-rule="evenodd"/><path fill="#000000" fill-opacity="0.0" d="m124.67677 177.5055l6.41098 9.892456" fill-rule="evenodd"/><path stroke="#ffffff" stroke-width="4.0" stroke-linejoin="round" stroke-linecap="butt" d="m124.67677 177.5055l6.41098 9.892456" fill-rule="evenodd"/><path fill="#000000" fill-opacity="0.0" d="m131.07097 187.40909l8.525604 -12.7332" fill-rule="evenodd"/><path stroke="#ffffff" stroke-width="4.0" stroke-linejoin="round" stroke-linecap="butt" d="m131.07097 187.40909l8.525604 -12.7332" fill-rule="evenodd"/><path fill="#000000" fill-opacity="0.0" d="m139.59657 174.67589l5.6725464 12.031372" fill-rule="evenodd"/><path stroke="#ffffff" stroke-width="4.0" stroke-linejoin="round" stroke-linecap="butt" d="m139.59657 174.67589l5.6725464 12.031372" fill-rule="evenodd"/><path fill="#000000" fill-opacity="0.0" d="m145.2803 185.2869l9.9353485 -10.594299" fill-rule="evenodd"/><path stroke="#ffffff" stroke-width="4.0" stroke-linejoin="round" stroke-linecap="butt" d="m145.2803 185.2869l9.9353485 -10.594299" fill-rule="evenodd"/><path fill="#000000" fill-opacity="0.0" d="m155.22684 174.67589l8.525604 11.329544" fill-rule="evenodd"/><path stroke="#ffffff" stroke-width="4.0" stroke-linejoin="round" stroke-linecap="butt" d="m155.22684 174.67589l8.525604 11.329544" fill-rule="evenodd"/></g></svg>