<?xml version="1.0" encoding="utf-8"?>
<!-- Generator: Adobe Illustrator 18.0.0, SVG Export Plug-In . SVG Version: 6.00 Build 0)  -->
<!DOCTYPE svg PUBLIC "-//W3C//DTD SVG 1.1//EN" "http://www.w3.org/Graphics/SVG/1.1/DTD/svg11.dtd">
<svg version="1.1" id="ecommerce_1_" xmlns="http://www.w3.org/2000/svg" xmlns:xlink="http://www.w3.org/1999/xlink" x="0px"
	 y="0px" viewBox="0 0 115 115" style="enable-background:new 0 0 115 115;" xml:space="preserve">
<style type="text/css">
	.st0{fill:#FFEEAD;}
	.st1{fill:#C9B77D;}
	.st2{fill:#99734A;}
	.st3{fill:#FF6F69;}
	.st4{fill:#96CEB4;}
	.st5{fill:none;}
	.st6{fill:#AA9865;}
	.st7{fill:#71A58A;}
	.st8{fill:#FFCC5C;}
	.st9{fill:#825E3B;}
	.st10{fill:#639376;}
	.st11{fill:#E05858;}
	.st12{fill:#C1821E;}
	.st13{fill:#D6A041;}
	.st14{fill:#B28559;}
	.st15{fill:#BF4343;}
	.st16{fill:#D3C089;}
	.st17{fill:#7C5C3C;}
	.st18{fill:#FDCC5C;}
	.st19{fill:#FFFFFF;}
</style>
<g id="calculator_1_">
	<g>
		<g>
			<path class="st7" d="M89.589,6.319H25.411c-3.977,0-7.201,3.224-7.201,7.201v94.28c0,3.977,3.224,7.201,7.201,7.201h64.178
				c3.977,0,7.201-3.224,7.201-7.201v-94.28C96.789,9.543,93.566,6.319,89.589,6.319z"/>
		</g>
	</g>
	<g>
		<g>
			<path class="st4" d="M89.589,0H25.411c-3.977,0-7.201,3.224-7.201,7.2v94.28c0,3.977,3.224,7.201,7.201,7.201h64.178
				c3.977,0,7.201-3.224,7.201-7.201V7.201C96.789,3.224,93.566,0,89.589,0z"/>
		</g>
	</g>
	<g>
		<g>
			<path class="st3" d="M89.589,0H25.411c-3.977,0-7.201,3.224-7.201,7.201v30.817h78.579V7.201C96.789,3.224,93.566,0,89.589,0z"/>
		</g>
	</g>
	<g>
		<g>
			<path class="st0" d="M84.108,10.426H30.892c-3.391,0-6.141,2.749-6.141,6.141v7.642c0,3.391,2.749,6.141,6.141,6.141h53.216
				c3.391,0,6.141-2.749,6.141-6.141v-7.642C90.249,13.175,87.5,10.426,84.108,10.426z"/>
		</g>
	</g>
	<g>
		<g>
			<g>
				<path class="st1" d="M84.108,10.426H30.892c-3.391,0-6.141,2.749-6.141,6.141v2.085c0.064-3.326,2.761-6.011,6.105-6.023
					l53.216-0.192c3.391-0.012,6.151,2.727,6.163,6.118l0.014,3.885v-5.873C90.249,13.175,87.5,10.426,84.108,10.426z"/>
			</g>
		</g>
		<g>
			<g>
				<path class="st1" d="M24.751,22.548v1.661c0,0.021,0.006,0.041,0.006,0.062L24.751,22.548z"/>
			</g>
		</g>
	</g>
	<g>
		<g>
			<g>
				<path class="st11" d="M83.066,65.625h-9.199c-2.039,0-3.692,1.653-3.692,3.692v29.971c0,2.039,1.653,3.692,3.692,3.692h9.199
					c2.039,0,3.692-1.653,3.692-3.692V69.317C86.758,67.278,85.105,65.625,83.066,65.625z"/>
			</g>
		</g>
		<g>
			<g>
				<path class="st2" d="M83.066,44.325h-8.991c-2.039,0-3.691,1.653-3.691,3.692v8.991c0,2.039,1.653,3.692,3.691,3.692h8.991
					c2.039,0,3.692-1.653,3.692-3.692v-8.991C86.758,45.978,85.105,44.325,83.066,44.325z"/>
			</g>
		</g>
		<g>
			<g>
				<path class="st11" d="M40.925,44.325h-8.991c-2.039,0-3.692,1.653-3.692,3.692v8.991c0,2.039,1.653,3.692,3.692,3.692h8.991
					c2.039,0,3.692-1.653,3.692-3.692v-8.991C44.617,45.978,42.964,44.325,40.925,44.325z"/>
			</g>
		</g>
		<g>
			<g>
				<path class="st11" d="M62.068,44.325h-8.991c-2.039,0-3.692,1.653-3.692,3.692v8.991c0,2.039,1.653,3.692,3.692,3.692h8.991
					c2.039,0,3.692-1.653,3.692-3.692v-8.991C65.76,45.978,64.107,44.325,62.068,44.325z"/>
			</g>
		</g>
		<g>
			<g>
				<path class="st11" d="M40.925,65.625h-8.991c-2.039,0-3.692,1.653-3.692,3.692v8.991c0,2.039,1.653,3.692,3.692,3.692h8.991
					c2.039,0,3.692-1.653,3.692-3.692v-8.991C44.617,67.278,42.964,65.625,40.925,65.625z"/>
			</g>
		</g>
		<g>
			<g>
				<path class="st11" d="M62.068,65.625h-8.991c-2.039,0-3.692,1.653-3.692,3.692v8.991c0,2.039,1.653,3.692,3.692,3.692h8.991
					c2.039,0,3.692-1.653,3.692-3.692v-8.991C65.76,67.278,64.107,65.625,62.068,65.625z"/>
			</g>
		</g>
		<g>
			<g>
				<path class="st11" d="M40.925,86.605h-8.991c-2.039,0-3.692,1.653-3.692,3.691v8.991c0,2.039,1.653,3.692,3.692,3.692h8.991
					c2.039,0,3.692-1.653,3.692-3.692v-8.991C44.617,88.257,42.964,86.605,40.925,86.605z"/>
			</g>
		</g>
		<g>
			<g>
				<path class="st11" d="M62.068,86.605h-8.991c-2.039,0-3.692,1.653-3.692,3.691v8.991c0,2.039,1.653,3.692,3.692,3.692h8.991
					c2.039,0,3.692-1.653,3.692-3.692v-8.991C65.76,88.257,64.107,86.605,62.068,86.605z"/>
			</g>
		</g>
		<g>
			<g>
				<circle class="st11" cx="39.369" cy="77.12" r="0.812"/>
			</g>
		</g>
		<g>
			<g>
				<circle class="st11" cx="33.287" cy="70.884" r="0.812"/>
			</g>
		</g>
		<g>
			<g>
				<path class="st3" d="M83.066,63.77h-9.199c-2.039,0-3.692,1.653-3.692,3.692v29.971c0,2.039,1.653,3.692,3.692,3.692h9.199
					c2.039,0,3.692-1.653,3.692-3.692V67.461C86.758,65.422,85.105,63.77,83.066,63.77z"/>
			</g>
		</g>
		<g>
			<g>
				<path class="st8" d="M83.066,42.469h-8.991c-2.039,0-3.691,1.653-3.691,3.692v8.991c0,2.039,1.653,3.691,3.691,3.691h8.991
					c2.039,0,3.692-1.653,3.692-3.691v-8.991C86.758,44.122,85.105,42.469,83.066,42.469z"/>
			</g>
		</g>
		<g>
			<g>
				<path class="st3" d="M40.925,42.469h-8.991c-2.039,0-3.692,1.653-3.692,3.692v8.991c0,2.039,1.653,3.691,3.692,3.691h8.991
					c2.039,0,3.692-1.653,3.692-3.691v-8.991C44.617,44.122,42.964,42.469,40.925,42.469z"/>
			</g>
		</g>
		<g>
			<g>
				<path class="st3" d="M62.068,42.469h-8.991c-2.039,0-3.692,1.653-3.692,3.692v8.991c0,2.039,1.653,3.691,3.692,3.691h8.991
					c2.039,0,3.692-1.653,3.692-3.691v-8.991C65.76,44.122,64.107,42.469,62.068,42.469z"/>
			</g>
		</g>
		<g>
			<g>
				<path class="st3" d="M40.925,63.77h-8.991c-2.039,0-3.692,1.653-3.692,3.692v8.991c0,2.039,1.653,3.692,3.692,3.692h8.991
					c2.039,0,3.692-1.653,3.692-3.692v-8.991C44.617,65.422,42.964,63.77,40.925,63.77z"/>
			</g>
		</g>
		<g>
			<g>
				<path class="st3" d="M62.068,63.77h-8.991c-2.039,0-3.692,1.653-3.692,3.692v8.991c0,2.039,1.653,3.692,3.692,3.692h8.991
					c2.039,0,3.692-1.653,3.692-3.692v-8.991C65.76,65.422,64.107,63.77,62.068,63.77z"/>
			</g>
		</g>
		<g>
			<g>
				<path class="st3" d="M40.925,84.749h-8.991c-2.039,0-3.692,1.653-3.692,3.692v8.991c0,2.039,1.653,3.692,3.692,3.692h8.991
					c2.039,0,3.692-1.653,3.692-3.692v-8.991C44.617,86.402,42.964,84.749,40.925,84.749z"/>
			</g>
		</g>
		<g>
			<g>
				<path class="st3" d="M62.068,84.749h-8.991c-2.039,0-3.692,1.653-3.692,3.692v8.991c0,2.039,1.653,3.692,3.692,3.692h8.991
					c2.039,0,3.692-1.653,3.692-3.692v-8.991C65.76,86.402,64.107,84.749,62.068,84.749z"/>
			</g>
		</g>
		<g>
			<g>
				<path class="st0" d="M61.483,70.523h-2.769v-2.769c0-0.314-0.254-0.568-0.568-0.568h-1.73c-0.314,0-0.568,0.254-0.568,0.568
					v2.769h-2.769c-0.314,0-0.568,0.254-0.568,0.568v1.731c0,0.314,0.254,0.568,0.568,0.568h2.769v2.769
					c0,0.314,0.255,0.568,0.568,0.568h1.73c0.314,0,0.568-0.254,0.568-0.568V73.39h2.769c0.314,0,0.568-0.254,0.568-0.568v-1.731
					C62.051,70.777,61.796,70.523,61.483,70.523z"/>
			</g>
		</g>
		<g>
			<g>
				<path class="st0" d="M61.695,49.266h-8.829c-0.208,0.084-0.356,0.287-0.356,0.525v1.73c0,0.242,0.153,0.445,0.366,0.527h8.809
					c0.213-0.082,0.366-0.285,0.366-0.527v-1.73C62.051,49.553,61.903,49.35,61.695,49.266z"/>
			</g>
		</g>
		<g>
			<g>
				<path class="st0" d="M40.553,49.266h-8.829c-0.208,0.084-0.356,0.287-0.356,0.525v1.73c0,0.242,0.153,0.445,0.366,0.527h8.809
					c0.213-0.082,0.366-0.285,0.366-0.527v-1.73C40.909,49.553,40.762,49.35,40.553,49.266z"/>
			</g>
		</g>
		<g>
			<g>
				<path class="st0" d="M40.722,68.031L39.593,67.1c-0.156-0.128-0.404-0.096-0.623,0.057l-6.946,8.429
					c-0.109,0.244-0.093,0.494,0.063,0.622l1.129,0.931c0.158,0.13,0.411,0.094,0.632-0.066l6.931-8.41
					C40.893,68.416,40.88,68.161,40.722,68.031z"/>
			</g>
		</g>
		<g>
			<g>
				<path class="st0" d="M82.881,78.581h-8.829c-0.208,0.084-0.356,0.287-0.356,0.525v1.731c0,0.242,0.153,0.445,0.366,0.527h8.809
					c0.213-0.082,0.366-0.285,0.366-0.527v-1.731C83.237,78.868,83.089,78.665,82.881,78.581z"/>
			</g>
		</g>
		<g>
			<g>
				<path class="st0" d="M82.881,83.529h-8.829c-0.208,0.084-0.356,0.287-0.356,0.525v1.731c0,0.242,0.153,0.445,0.366,0.527h8.809
					c0.213-0.082,0.366-0.285,0.366-0.527v-1.731C83.237,83.816,83.089,83.613,82.881,83.529z"/>
			</g>
		</g>
		<g>
			<g>
				<circle class="st0" cx="36.139" cy="46.173" r="1.546"/>
			</g>
		</g>
		<g>
			<g>
				<circle class="st0" cx="36.139" cy="55.427" r="1.546"/>
			</g>
		</g>
		<g>
			<g>
				<circle class="st0" cx="57.656" cy="95.827" r="1.546"/>
			</g>
		</g>
		<g>
			<g>
				<g>
					<path class="st0" d="M38.803,89.16c-0.756-1.187-2.255-1.202-2.73-1.202c-0.371,0-1.602,0-2.388,0.786
						c-0.815,0.816-0.875,2.136-0.875,4.555c0,2.418,0.015,3.679,0.95,4.54c0.608,0.563,1.468,0.726,2.299,0.726
						c0.593,0,2.345-0.074,2.967-1.706c0.312-0.83,0.312-2.092,0.312-4.02C39.337,90.792,39.249,89.872,38.803,89.16z
						 M36.815,96.207c-0.029,0.222-0.133,0.712-0.742,0.712c-0.622,0-0.712-0.519-0.726-0.698c-0.089-0.475-0.089-2.655-0.089-3.264
						c0-0.564,0-2.359,0.163-2.819c0.059-0.193,0.178-0.371,0.416-0.46c0.118-0.044,0.222-0.044,0.267-0.044
						c0.652,0,0.712,0.682,0.742,0.949c0.03,0.385,0.045,1.35,0.045,2.329C36.89,93.507,36.89,95.777,36.815,96.207z"/>
				</g>
			</g>
		</g>
		<g>
			<g>
				<circle class="st0" cx="39.369" cy="75.264" r="2.433"/>
			</g>
		</g>
		<g>
			<g>
				<circle class="st3" cx="39.369" cy="75.264" r="0.812"/>
			</g>
		</g>
		<g>
			<g>
				<circle class="st0" cx="33.287" cy="69.028" r="2.433"/>
			</g>
		</g>
		<g>
			<g>
				<circle class="st3" cx="33.287" cy="69.028" r="0.812"/>
			</g>
		</g>
		<g>
			<g>
				<g>
					<path class="st3" d="M78.502,53.205l-1.235-5.49c-0.085-0.327-0.195-0.8-0.758-0.98c-0.269-0.079-0.661-0.079-0.99-0.079
						c-1.1,0-1.381,0.181-1.589,0.992l-1.271,5.422c-0.049,0.214-0.098,0.406-0.098,0.597c0,0.789,0.685,1.015,1.137,1.015
						c0.869,0,0.99-0.733,1.051-1.082l0.147-0.835h1.357l0.134,0.812c0.061,0.394,0.183,1.105,1.112,1.105
						c0.612,0,1.076-0.429,1.076-0.992C78.574,53.52,78.538,53.362,78.502,53.205z M75.14,51.221c0.184-1.195,0.233-1.488,0.428-3.1
						c0.049,0.293,0.085,0.575,0.122,0.868c0.172,1.342,0.196,1.488,0.318,2.232H75.14z"/>
				</g>
			</g>
		</g>
		<g>
			<g>
				<path class="st3" d="M83.755,51.514c-0.587,0-0.868,0.304-0.978,0.564c-0.049,0.135-0.062,0.282-0.074,0.429
					c-0.025,0.203-0.061,0.609-0.648,0.609c-0.574,0-0.672-0.429-0.697-0.553c-0.085-0.361-0.085-1.296-0.085-1.736
					c0-0.248,0-1.534,0.061-1.962c0.036-0.191,0.11-0.676,0.758-0.676c0.599,0,0.623,0.383,0.661,0.8
					c0.012,0.214,0.036,0.428,0.22,0.609c0.122,0.124,0.354,0.237,0.721,0.237c1.051,0,1.063-0.902,1.063-1.218
					c0-0.597-0.134-1.24-0.917-1.668c-0.44-0.237-0.966-0.383-1.845-0.383c-0.379,0-1.21,0.023-1.895,0.473
					c-0.978,0.665-1.002,1.68-1.002,3.63c0,2.39,0.184,3.1,1.051,3.63c0.22,0.135,0.746,0.428,1.907,0.428
					c0.794,0,1.601-0.158,2.151-0.676c0.391-0.372,0.586-0.879,0.586-1.398C84.793,51.965,84.452,51.514,83.755,51.514z"/>
			</g>
		</g>
	</g>
	<g>
		<g>
			<g>
				<g>
					<path class="st2" d="M83.471,15.492c-1.11-1.743-3.312-1.765-4.009-1.765c-0.545,0-2.352,0-3.507,1.155
						c-1.197,1.198-1.284,3.137-1.284,6.688c0,3.55,0.021,5.402,1.394,6.666c0.892,0.828,2.155,1.067,3.376,1.067
						c0.871,0,3.443-0.109,4.356-2.505c0.458-1.22,0.458-3.071,0.458-5.903C84.255,17.887,84.126,16.537,83.471,15.492z
						 M80.552,25.839c-0.043,0.326-0.195,1.046-1.089,1.046c-0.913,0-1.045-0.763-1.066-1.024c-0.131-0.697-0.131-3.899-0.131-4.792
						c0-0.828,0-3.464,0.239-4.139c0.087-0.284,0.261-0.545,0.61-0.676c0.174-0.065,0.326-0.065,0.392-0.065
						c0.958,0,1.045,1.001,1.089,1.394c0.044,0.566,0.066,1.982,0.066,3.42C80.662,21.874,80.662,25.207,80.552,25.839z"/>
				</g>
			</g>
		</g>
	</g>
</g>
</svg>
